<?xml version="1.0" encoding="utf-8"?>
<!-- Generator: Adobe Illustrator 21.0.2, SVG Export Plug-In . SVG Version: 6.00 Build 0)  -->
<svg version="1.1" id="Layer_1" xmlns="http://www.w3.org/2000/svg" xmlns:xlink="http://www.w3.org/1999/xlink" x="0px" y="0px"
	 viewBox="0 0 258.7 70" style="enable-background:new 0 0 258.7 70;" xml:space="preserve">
<style type="text/css">
	.st0{fill:#FF015B;}
</style>
<g>
	<path class="st0" d="M74.7,53.3c-2.3,2.3-5.1,3.5-8.4,3.5c-3.3,0-6-1.2-8.3-3.5s-3.4-5.1-3.4-8.3c0-3.3,1.1-6,3.4-8.3
		c2.3-2.3,5-3.4,8.3-3.4c3.3,0,6,1.1,8.4,3.4c2.3,2.3,3.5,5.1,3.5,8.3S77,51,74.7,53.3 M256.8,1.8C255.6,0.6,254,0,252,0
		c-1.9,0-3.5,0.6-4.7,1.9c-1.2,1.2-1.9,2.8-1.9,4.7v38.3c0,3.3-1.2,6-3.5,8.3s-5.1,3.4-8.4,3.4c-3.3,0-6-1.1-8.3-3.4
		c-2.3-2.3-3.4-5-3.4-8.3s1.1-6,3.4-8.4c2.3-2.3,5-3.5,8.3-3.5c2,0,3.5-0.6,4.8-1.8c1.2-1.2,1.9-2.8,1.9-4.7c0-2-0.6-3.6-1.9-4.8
		c-1.2-1.2-2.8-1.9-4.8-1.9c-7,0-12.9,2.4-17.7,7.2c-3.7,3.7-6,8.1-6.8,13.2c-0.9-5-3.1-9.4-6.8-13.1c-4.8-4.8-10.7-7.2-17.8-7.2
		c-7,0-12.9,2.4-17.7,7.2c-3.8,3.8-6,8.2-6.8,13.4c-0.1-5.7-2.1-10.5-6-14.4c-0.1-0.1-0.3-0.3-0.4-0.4c-4-3.8-8.8-5.7-14.5-5.7
		c-5.2,0-9.8,1.7-13.7,5c-4-3.3-8.5-5-13.7-5c-5.9,0-10.9,2-15,6.1c-3.4,3.4-5.4,7.4-5.9,12.1c-1.1-4.2-3.2-7.9-6.4-11.1
		c-5-4.7-10.9-7.1-17.9-7.1s-12.9,2.4-17.7,7.2c-3.6,3.6-5.9,7.9-6.8,12.8c-0.2-5.3-2.2-9.9-5.8-13.6v-0.2c-4.1-4-9.1-6.1-15-6.1
		s-10.9,2-15,6.1c-4.1,4-6.1,9-6.1,15v22.2c0,2,0.6,3.5,1.8,4.7c1.2,1.2,2.8,1.8,4.7,1.8s3.5-0.6,4.8-1.8c1.2-1.2,1.9-2.8,1.9-4.7
		V41.1c0-2.2,0.8-4.1,2.3-5.6s3.4-2.2,5.6-2.2s4,0.8,5.5,2.3c1.4,1.4,2.1,3,2.3,4.9c0,0.2,0,0.4,0,0.6v22.2c0,0.5,0,1,0.1,1.5v0.9
		l0.1-0.5c0.3,1.1,0.8,2.1,1.6,2.9c1.2,1.2,2.8,1.8,4.8,1.8s3.5-0.6,4.7-1.8c0.8-0.8,1.4-1.9,1.6-3.1V50c0.9,4.9,3.1,9.1,6.7,12.7
		c4.8,4.8,10.7,7.2,17.7,7.2s13-2.4,17.8-7.2c3.1-3.1,5.1-6.6,6.3-10.5v11.1c0,2,0.6,3.5,1.9,4.7c1.2,1.2,2.8,1.8,4.8,1.8
		s3.5-0.6,4.7-1.8c1.2-1.2,1.8-2.8,1.8-4.7V41.1c0-2.2,0.8-4.1,2.3-5.6s3.4-2.2,5.6-2.2s4,0.8,5.6,2.3s2.3,3.4,2.3,5.5v22.2
		c0,2,0.6,3.5,1.8,4.7c1.2,1.2,2.8,1.8,4.7,1.8c2,0,3.5-0.6,4.8-1.8c1.2-1.2,1.9-2.8,1.9-4.7v-27c1.6-2,3.6-3,6.3-3
		c2.1,0,4,0.8,5.5,2.3s2.3,3.4,2.3,5.5l0.2,0.3v21.9c0,2,0.6,3.5,1.9,4.7c1.2,1.2,2.8,1.8,4.8,1.8s3.5-0.6,4.7-1.8
		c0.8-0.8,1.4-1.9,1.6-3.1V49.4c0.8,5.1,3.1,9.6,6.8,13.3c4.8,4.8,10.7,7.2,17.7,7.2c2,0,3.5-0.6,4.8-1.9c1.2-1.2,1.9-2.8,1.9-4.8
		c0-2-0.6-3.5-1.9-4.7c-1.2-1.2-2.8-1.8-4.8-1.8c-3.3,0-6-1.2-8.3-3.5s-3.4-5.1-3.4-8.3c0-3.3,1.1-6,3.4-8.3c2.3-2.3,5-3.4,8.3-3.4
		s6,1.1,8.4,3.4c2.3,2.3,3.5,5.1,3.5,8.3v18.3c0,2,0.6,3.5,1.8,4.7c1.2,1.2,2.8,1.8,4.7,1.8c2,0,3.5-0.6,4.8-1.8
		c1.2-1.2,1.9-2.8,1.9-4.7v-12c1.1,4.2,3.2,8,6.5,11.3c4.8,4.8,10.7,7.2,17.7,7.2s12.9-2.4,17.7-7.2c4.9-4.8,7.3-10.7,7.3-17.7V6.5
		C258.7,4.6,258,3,256.8,1.8"/>
</g>
</svg>
